<svg id="Group_11757" data-name="Group 11757" xmlns="http://www.w3.org/2000/svg" width="106.571" height="35.358" viewBox="0 0 106.571 35.358">
  <path id="Subtraction_1" data-name="Subtraction 1" d="M30.442,35.356H5.674A5.68,5.68,0,0,1,0,29.682V6.123H.014c0-.026,0-.053-.005-.079C0,5.98,0,5.92,0,5.859A5.866,5.866,0,0,1,5.859,0H24a5.079,5.079,0,0,1,5.074,5.073v2.9h1.369a6.412,6.412,0,0,1,4.01,1.255,4.448,4.448,0,0,1,1.664,3.6v1.493h-.21a12.7,12.7,0,0,0-8.143-2.86c-6.548,0-11.874,4.715-11.874,10.509s5.327,10.509,11.874,10.509a12.8,12.8,0,0,0,7.8-2.585h.144v1.01a4.058,4.058,0,0,1-1.46,3.4A6.091,6.091,0,0,1,30.442,35.356ZM5.859,3.383A2.48,2.48,0,0,0,3.383,5.859,2.117,2.117,0,0,0,5.5,7.974H25.691v-2.9A1.693,1.693,0,0,0,24,3.383Z" fill="#116e99"/>
  <g id="Group_951" data-name="Group 951" transform="translate(1.092 21.837)">
    <path id="Path_1842" data-name="Path 1842" d="M9.5,41.947a1.447,1.447,0,0,0,1.447,1.447,3.621,3.621,0,0,1,3.617,3.617,1.447,1.447,0,1,0,2.893,0,6.517,6.517,0,0,0-6.51-6.51A1.447,1.447,0,0,0,9.5,41.947Z" transform="translate(-9.411 -35.437)" fill="#fff" stroke="#116e99" stroke-width="1"/>
    <path id="Path_1843" data-name="Path 1843" d="M19.9,44.35a1.447,1.447,0,0,0,2.893,0A10.863,10.863,0,0,0,11.947,33.5a1.447,1.447,0,0,0,0,2.893A7.966,7.966,0,0,1,19.9,44.35Z" transform="translate(-9.688 -33.5)" fill="#fff" stroke="#116e99" stroke-width="1"/>
    <circle id="Ellipse_29" data-name="Ellipse 29" cx="1.535" cy="1.535" r="1.535" transform="translate(0 10.038)" fill="#fff"/>
  </g>
  <path id="Path_1849" data-name="Path 1849" d="M9.937-41.817a2.522,2.522,0,0,0,.5.1q.252.023.5.023a4.357,4.357,0,0,0,1.215-.169,4.455,4.455,0,0,0,1.1-.483,4.054,4.054,0,0,0,.915-.766,4.012,4.012,0,0,0,.655-1l3.155,3.079A8.338,8.338,0,0,1,16.6-39.55a8.726,8.726,0,0,1-1.688,1.118,8.594,8.594,0,0,1-1.909.7,8.894,8.894,0,0,1-2.059.237,8.751,8.751,0,0,1-3.352-.643A8.49,8.49,0,0,1,4.85-39.933,8.4,8.4,0,0,1,3-42.668a8.77,8.77,0,0,1-.678-3.485A9.058,9.058,0,0,1,3-49.708,8.166,8.166,0,0,1,4.85-52.45a8.41,8.41,0,0,1,2.745-1.762,8.939,8.939,0,0,1,3.352-.628,8.728,8.728,0,0,1,2.067.245,8.839,8.839,0,0,1,1.917.7,8.745,8.745,0,0,1,1.7,1.126,8.409,8.409,0,0,1,1.388,1.494Zm2.209-8.625a2.542,2.542,0,0,0-.592-.138,5.821,5.821,0,0,0-.607-.031,4.418,4.418,0,0,0-1.664.314,3.967,3.967,0,0,0-1.357.9A4.21,4.21,0,0,0,7.019-48a4.889,4.889,0,0,0-.331,1.846q0,.23.024.521a5.857,5.857,0,0,0,.079.59q.055.3.134.575a2.1,2.1,0,0,0,.205.49Z" transform="translate(16.974 68.142)" fill="#0fa9a6"/>
  <path id="Path_1848" data-name="Path 1848" d="M12.6-47.4q.257,1,.568,2.246t.664,2.586q.353,1.335.718,2.671t.707,2.476q.28-1.238.571-2.695t.55-3.011q.259-1.554.507-3.1t.463-2.974h3.477q-.755,4.225-1.737,8.571T16.96-32.375H13.9q-.75-2.331-1.456-4.892T11.05-42.4q-.687,2.574-1.375,5.135T8.236-32.375H5.177Q4.035-36.284,3.055-40.63T1.32-49.2H4.946q.216,1.432.474,2.974t.539,3.1q.28,1.554.571,3.011t.593,2.695q.387-1.19.752-2.525t.709-2.671q.344-1.335.634-2.574T9.746-47.4ZM26.445-34.9q.472,0,.9-.024A5.565,5.565,0,0,0,28.033-35v-2.744a5.267,5.267,0,0,0-.579-.1,5.711,5.711,0,0,0-.708-.049,5.612,5.612,0,0,0-.848.061,2.026,2.026,0,0,0-.7.231,1.254,1.254,0,0,0-.472.461,1.415,1.415,0,0,0-.172.728,1.3,1.3,0,0,0,.5,1.178A2.52,2.52,0,0,0,26.445-34.9Zm-.257-10.586a6.608,6.608,0,0,1,2.36.364,3.625,3.625,0,0,1,1.513,1.044,4,4,0,0,1,.8,1.651,9.159,9.159,0,0,1,.236,2.161v7.527q-.687.17-1.91.4a16.259,16.259,0,0,1-2.961.231,8.337,8.337,0,0,1-1.985-.219,4.051,4.051,0,0,1-1.534-.716,3.2,3.2,0,0,1-.987-1.3,4.994,4.994,0,0,1-.343-1.967,4.126,4.126,0,0,1,.4-1.894,3.3,3.3,0,0,1,1.062-1.238,4.484,4.484,0,0,1,1.523-.668,7.591,7.591,0,0,1,1.781-.206,8.946,8.946,0,0,1,1.105.061,4.405,4.405,0,0,1,.783.158v-.34a2.155,2.155,0,0,0-.493-1.481,2.206,2.206,0,0,0-1.717-.558,9.686,9.686,0,0,0-1.609.134,6.25,6.25,0,0,0-1.373.376l-.408-2.914q.279-.1.7-.206t.912-.194q.494-.085,1.041-.146A10.013,10.013,0,0,1,26.188-45.486ZM38.5-32.133a7.123,7.123,0,0,1-2.264-.34,3.285,3.285,0,0,1-1.373-.886,3.06,3.06,0,0,1-.687-1.384A8.407,8.407,0,0,1,34-36.576V-50.633l3.2-.583V-37.3a5.38,5.38,0,0,0,.064.874,1.616,1.616,0,0,0,.247.656,1.336,1.336,0,0,0,.526.437,2.6,2.6,0,0,0,.923.218Zm6.78,0a7.123,7.123,0,0,1-2.264-.34,3.285,3.285,0,0,1-1.373-.886,3.06,3.06,0,0,1-.687-1.384,8.406,8.406,0,0,1-.182-1.833V-50.633l3.2-.583V-37.3a5.378,5.378,0,0,0,.064.874,1.616,1.616,0,0,0,.247.656,1.336,1.336,0,0,0,.526.437,2.6,2.6,0,0,0,.923.218Zm1.738-6.531a8.73,8.73,0,0,1,.461-2.974A6.517,6.517,0,0,1,48.7-43.762a5.039,5.039,0,0,1,1.727-1.287,4.862,4.862,0,0,1,2.006-.437,4.7,4.7,0,0,1,3.8,1.663,7.446,7.446,0,0,1,1.395,4.892q0,.316-.021.692t-.043.668H50.3a2.478,2.478,0,0,0,.923,1.772,3.392,3.392,0,0,0,2.189.656,8.2,8.2,0,0,0,1.727-.182,5.954,5.954,0,0,0,1.384-.449l.429,2.938a4.111,4.111,0,0,1-.687.291,8.119,8.119,0,0,1-.955.255q-.526.109-1.126.182a9.974,9.974,0,0,1-1.2.073,6.378,6.378,0,0,1-2.65-.51,5.165,5.165,0,0,1-1.867-1.4,5.735,5.735,0,0,1-1.094-2.1A9.33,9.33,0,0,1,47.022-38.664Zm7.51-1.384a4.181,4.181,0,0,0-.139-.9,2.353,2.353,0,0,0-.365-.777,2,2,0,0,0-.622-.558,1.831,1.831,0,0,0-.933-.218,1.932,1.932,0,0,0-.923.206,1.948,1.948,0,0,0-.644.546,2.542,2.542,0,0,0-.4.789,5.742,5.742,0,0,0-.2.91Zm5.45-8.279,3.2-.583v3.763h3.841v3.011H63.178v4.492a3.963,3.963,0,0,0,.354,1.821,1.454,1.454,0,0,0,1.427.68,5.419,5.419,0,0,0,1.062-.109,4.98,4.98,0,0,0,1-.3l.451,2.816a8.351,8.351,0,0,1-1.287.461,6.664,6.664,0,0,1-1.738.194,5.128,5.128,0,0,1-2.167-.4A3.451,3.451,0,0,1,60.9-33.6a4.417,4.417,0,0,1-.719-1.736,11.549,11.549,0,0,1-.2-2.258Z" transform="translate(39.101 63.599)" fill="#0fa9a6"/>
</svg>
