<svg xmlns="http://www.w3.org/2000/svg" width="33" height="49" viewBox="0 0 33 49"><path d="M34.946,24.314a.876.876,0,0,0-.876-.876H30.563a.876.876,0,0,0-.876.876V27.82a.876.876,0,0,0,1.753,0V25.19h2.629A.876.876,0,0,0,34.946,24.314Z" transform="translate(-23.523 -13.343)" fill="#696969"/><path d="M61.814,25.19h2.629v2.629a.876.876,0,0,0,1.753,0V24.313a.876.876,0,0,0-.876-.876H61.814a.876.876,0,1,0,0,1.753Z" transform="translate(-39.361 -13.343)" fill="#696969"/><path d="M30.564,54.688a.876.876,0,0,0-.876.876V59.07a.876.876,0,0,0,.876.876H34.07a.876.876,0,1,0,0-1.753H31.44V55.564a.876.876,0,0,0-.876-.876Z" transform="translate(-23.523 -27.77)" fill="#696969"/><path d="M65.32,59.946a.876.876,0,0,0,.876-.876V55.563a.876.876,0,0,0-1.753,0v2.629H61.814a.876.876,0,0,0,0,1.753Z" transform="translate(-39.361 -27.769)" fill="#696969"/><path d="M43.826,38.452a.876.876,0,0,0,.876-.876V30.563a.876.876,0,0,0-.876-.876H36.814a.876.876,0,0,0-.876.876v7.012a.876.876,0,0,0,.876.876ZM37.69,31.44h5.259V36.7H37.69Z" transform="translate(-26.849 -16.275)" fill="#696969"/><path d="M17.973,30.032h.786V51.153a2.453,2.453,0,0,0,2.357,2.535h9.429a.847.847,0,0,0,0-1.69H21.116a.818.818,0,0,1-.786-.845V30.032h6.286v2.535a.817.817,0,0,0,.786.845h3.143a.817.817,0,0,0,.786-.845V30.032h7.857v2.535a.788.788,0,1,0,1.571,0V30.032h6.286V51.153a.818.818,0,0,1-.786.845H36.83a.847.847,0,0,0,0,1.69h9.429a2.453,2.453,0,0,0,2.357-2.535V30.032H49.4a.847.847,0,0,0,0-1.69h-.786V7.222a2.453,2.453,0,0,0-2.357-2.535H21.116a2.453,2.453,0,0,0-2.357,2.535V28.343h-.786a.847.847,0,0,0,0,1.69Zm11.786,1.69H28.188v-1.69h1.571Zm-9.429-24.5a.818.818,0,0,1,.786-.845h10.36a2.292,2.292,0,0,0,4.424,0H46.26a.818.818,0,0,1,.786.845V28.343H40.76V25.808a.788.788,0,1,0-1.571,0v2.535H37.617c-1.617.012-1.523-.015-1.571,0H20.331Z" transform="translate(-17.188 -4.688)" fill="#696969"/><path d="M50.19,93.064a.876.876,0,0,1-1.753,0,.876.876,0,0,1,1.753,0" transform="translate(-32.814 -44.94)" fill="#696969"/></svg>